<svg width="96" height="95" viewBox="0 0 96 95" fill="none" xmlns="http://www.w3.org/2000/svg">
<path d="M36.5867 35.3002C35.0547 35.3002 33.5365 35.1953 32.1167 34.7773C27.0035 33.2665 23.2882 28.7448 22.1195 23.6337C20.9507 18.4993 22.2884 12.8771 25.8866 8.98821C29.2153 5.39227 33.1593 4.64713 37.7937 4.64713C37.8415 4.64713 37.9232 4.6505 38.0281 4.65483C38.0843 4.65714 38.1472 4.65973 38.215 4.66222C38.4086 4.66933 38.6408 4.67555 38.8687 4.6719C39.0962 4.66824 39.321 4.65473 39.4992 4.62193C39.5882 4.60555 39.6672 4.58406 39.7297 4.55568C39.7914 4.52767 39.8423 4.49051 39.8668 4.43955L39.867 4.43914C39.8712 4.43015 39.8724 4.41974 39.8696 4.40945C39.867 4.40001 39.8618 4.39327 39.8576 4.38898C39.8497 4.38096 39.8396 4.3759 39.832 4.3726C39.8155 4.36555 39.7924 4.3594 39.7657 4.35377C39.7114 4.34232 39.6327 4.33112 39.5385 4.32031C39.3497 4.29863 39.0944 4.278 38.8379 4.26015C38.3255 4.22448 37.804 4.1996 37.7937 4.1996C37.4108 4.1996 37.0274 4.19774 36.644 4.19587C32.5199 4.17581 28.3838 4.15569 24.7322 6.45469L24.7322 6.4547C19.0416 10.042 16.496 17.1856 17.9734 23.6444C19.3401 29.6427 24.0947 34.4628 30.2417 35.3918C32.8663 35.7883 35.6067 35.7296 38.3004 35.6719C39.2528 35.6515 40.1993 35.6312 41.1327 35.6312C41.1805 35.6312 41.2623 35.6346 41.3672 35.6389C41.4234 35.6412 41.4863 35.6438 41.5541 35.6463C41.7476 35.6534 41.9799 35.6596 42.2077 35.6559C42.4353 35.6523 42.6601 35.6388 42.8382 35.606C42.9272 35.5896 43.0063 35.5681 43.0688 35.5397C43.1263 35.5136 43.1745 35.4795 43.2006 35.4336L43.2061 35.4348C43.2097 35.4271 43.2111 35.4183 43.2096 35.4094V35.4074L43.2092 35.4073C43.209 35.4066 43.2089 35.4059 43.2087 35.4051C43.2061 35.3957 43.2009 35.389 43.1967 35.3847C43.1888 35.3767 43.1787 35.3716 43.171 35.3683C43.1546 35.3612 43.1315 35.3551 43.1048 35.3495C43.0505 35.338 42.9717 35.3268 42.8775 35.316C42.6887 35.2943 42.4335 35.2737 42.177 35.2558C41.6645 35.2202 41.143 35.1953 41.1327 35.1953C40.4058 35.1953 39.6604 35.221 38.9078 35.2469L38.8827 35.2478C38.1213 35.274 37.3526 35.3002 36.5867 35.3002Z" fill="#191919" stroke="#191919" stroke-width="0.074584"/>
<path d="M61.087 35.6424C60.2096 35.5494 59.3069 35.5493 58.4019 35.5726C58.0975 35.5805 57.7927 35.591 57.4885 35.6014C56.8892 35.622 56.2925 35.6426 55.7065 35.6426C55.6962 35.6426 55.1747 35.6177 54.6623 35.582C54.4058 35.5642 54.1505 35.5435 53.9617 35.5219C53.8675 35.5111 53.7888 35.4999 53.7344 35.4884C53.7077 35.4828 53.6846 35.4766 53.6682 35.4696C53.6605 35.4663 53.6505 35.4612 53.6426 35.4532C53.6383 35.4489 53.6331 35.4422 53.6306 35.4327C53.6278 35.4224 53.6289 35.412 53.6331 35.403L53.6333 35.4026C53.6579 35.3517 53.7088 35.3145 53.7705 35.2865C53.8329 35.2581 53.912 35.2366 54.001 35.2202C54.1792 35.1874 54.4039 35.1739 54.6315 35.1703C54.8594 35.1666 55.0916 35.1728 55.2851 35.18C55.353 35.1824 55.4158 35.185 55.472 35.1873C55.5769 35.1917 55.6587 35.195 55.7065 35.195C56.413 35.195 57.1291 35.183 57.8503 35.1709C59.4821 35.1434 61.14 35.1155 62.7718 35.2257C65.1257 35.3847 67.4304 35.8311 69.5347 36.9825C69.5348 36.9826 69.535 36.9827 69.5352 36.9828L69.5457 36.988L69.5469 36.9886C75.4572 40.2228 77.9805 46.8226 77.3383 53.0096C76.6961 59.1971 72.8868 64.9808 66.1227 66.579L66.1227 66.579C63.5095 67.1936 60.6894 67.1372 57.9596 67.0827C57.1895 67.0673 56.4265 67.052 55.6774 67.052H45.1007C45.0904 67.052 44.5689 67.0271 44.0565 66.9915C43.8 66.9736 43.5447 66.953 43.3559 66.9313C43.2617 66.9205 43.183 66.9093 43.1287 66.8979C43.1019 66.8922 43.0789 66.8861 43.0624 66.879C43.0547 66.8757 43.0447 66.8707 43.0368 66.8626C43.0326 66.8584 43.0274 66.8516 43.0248 66.8422C43.022 66.8319 43.0232 66.8215 43.0274 66.8125L43.0275 66.8121H43.0275C43.0521 66.7611 43.103 66.7239 43.1647 66.6959C43.2272 66.6676 43.3062 66.6461 43.3952 66.6297C43.5734 66.5969 43.7982 66.5834 44.0257 66.5797C44.2536 66.5761 44.4858 66.5823 44.6793 66.5894C44.7472 66.5919 44.8101 66.5945 44.8663 66.5968C44.9712 66.6011 45.0529 66.6045 45.1007 66.6045H46.4212V4.51869C46.3915 4.51871 46.3586 4.51875 46.3229 4.51879C46.0069 4.51919 45.472 4.51986 44.9884 4.50919C44.7075 4.503 44.443 4.49297 44.2486 4.47675C44.1515 4.46866 44.0706 4.45894 44.0134 4.44707C43.9851 4.4412 43.9604 4.43439 43.942 4.426C43.9329 4.42186 43.9232 4.41636 43.9152 4.40874C43.907 4.40095 43.898 4.38815 43.898 4.37066C43.898 4.34458 43.9131 4.32493 43.9286 4.31164C43.9443 4.29814 43.9653 4.28675 43.9887 4.27681C44.0358 4.25679 44.1015 4.23892 44.1792 4.22279C44.3351 4.19041 44.5468 4.16349 44.7723 4.14196C45.2235 4.09889 45.7346 4.07697 45.9748 4.07697C46.3537 4.07697 47.4949 4.07988 48.5416 4.11632C49.0648 4.13454 49.5652 4.16116 49.9351 4.20009C50.1198 4.21953 50.2735 4.24218 50.3816 4.26878C50.4353 4.282 50.48 4.29673 50.5121 4.31368C50.5282 4.32214 50.543 4.33215 50.5542 4.34439C50.5657 4.35694 50.5749 4.37365 50.5749 4.39397V66.6045H56.7379C57.2174 66.6045 57.7052 66.6205 58.1953 66.6367C59.1817 66.6691 60.1776 66.7019 61.1338 66.6047M61.087 35.6424C61.087 35.6424 61.087 35.6424 61.087 35.6424L61.091 35.6053L61.087 35.6424ZM61.087 35.6424C64.5653 36.014 67.8143 38.1982 69.9426 40.8963M69.9426 40.8963C74.4599 46.6345 74.5414 55.2054 70.1693 61.0485C68.0583 63.8689 64.722 66.2331 61.1338 66.6047M69.9426 40.8963L69.9719 40.8732L69.9426 40.8963C69.9426 40.8963 69.9426 40.8963 69.9426 40.8963ZM61.1338 66.6047C61.1338 66.6047 61.1338 66.6047 61.1338 66.6047L61.1376 66.6418L61.1338 66.6047Z" fill="#191919" stroke="#191919" stroke-width="0.074584"/>
<path d="M90.772 86.743L92.4326 82.7662C92.6715 82.1835 92.791 81.8601 92.791 81.796C92.791 81.5047 92.4676 81.3532 91.8208 81.3415V80.9395H94.338V81.3415C93.9476 81.359 93.6621 81.4639 93.4815 81.6562C93.3008 81.8426 93.0765 82.2592 92.8085 82.906L89.6182 90.6062C89.3152 91.3404 89.0472 91.8386 88.8141 92.1008C88.5811 92.3689 88.3247 92.5029 88.045 92.5029C87.6662 92.5029 87.4769 92.331 87.4769 91.9872C87.4769 91.591 87.7799 91.2559 88.3859 90.9821C88.7413 90.8247 88.9773 90.6907 89.0938 90.58C89.2162 90.4693 89.3356 90.2683 89.4522 89.9769L90.1339 88.2726L87.4419 82.504C87.203 81.997 87.0049 81.6766 86.8476 81.5425C86.6902 81.4085 86.4222 81.3415 86.0435 81.3415V80.9395H89.3298V81.3415C88.753 81.359 88.4645 81.4784 88.4645 81.6999C88.4645 81.7873 88.5781 82.0728 88.8054 82.5564L90.772 86.743Z" fill="#191919"/>
<path d="M85.8155 81.3417H83.6567V85.6681C83.6567 86.3324 83.6858 86.7811 83.7441 87.0141C83.8023 87.2414 83.9247 87.4249 84.1112 87.5648C84.3034 87.7046 84.5074 87.7745 84.723 87.7745C85.1425 87.7745 85.5067 87.5356 85.8155 87.0578L86.0952 87.2239C85.9146 87.6085 85.6465 87.8998 85.2911 88.0979C84.9415 88.2902 84.586 88.3864 84.2248 88.3864C83.8052 88.3864 83.4352 88.264 83.1148 88.0193C82.8001 87.7687 82.602 87.4774 82.5204 87.1452C82.4447 86.8131 82.4068 86.2304 82.4068 85.3972V81.3417H81.3667V80.9396C81.8445 80.928 82.2728 80.7269 82.6515 80.3365C83.0303 79.9461 83.2721 79.3984 83.377 78.6934H83.6567V80.9396H85.8155V81.3417Z" fill="#191919"/>
<path d="M79.348 80.9395V85.633C79.348 86.4138 79.3596 86.9033 79.3829 87.1014C79.4062 87.2995 79.4907 87.4481 79.6364 87.5471C79.7879 87.6462 80.0559 87.6957 80.4405 87.6957V88.0978C79.5548 88.1094 78.908 88.2026 78.5002 88.3775H78.3953C78.2088 88.057 78.1098 87.5034 78.0981 86.7168C77.7427 87.2703 77.3348 87.687 76.8745 87.9667C76.42 88.2463 75.9159 88.3862 75.3624 88.3862C74.8846 88.3862 74.4621 88.2784 74.095 88.0628C73.7279 87.8414 73.4745 87.5733 73.3346 87.2587C73.2006 86.944 73.1336 86.4692 73.1336 85.834V83.3955C73.1336 82.5681 73.119 82.064 73.0899 81.8834C73.0608 81.6969 72.9675 81.56 72.8102 81.4726C72.6587 81.3852 72.3761 81.3415 71.9624 81.3415V80.9395H74.3922V85.9039C74.3922 86.3934 74.4213 86.7488 74.4796 86.9703C74.5379 87.1917 74.6865 87.3869 74.9254 87.5559C75.1643 87.719 75.441 87.8006 75.7557 87.8006C76.2044 87.8006 76.6326 87.6549 77.0405 87.3636C77.4484 87.0664 77.7252 86.7547 77.8709 86.4284C78.0223 86.0962 78.0981 85.6243 78.0981 85.0124V83.3955C78.0981 82.6147 78.0894 82.1398 78.0719 81.9708C78.0544 81.8018 77.9786 81.6562 77.8446 81.5338C77.7164 81.4056 77.4455 81.3415 77.0318 81.3415H76.8482V80.9395H79.348Z" fill="#191919"/>
<path d="M71.0609 86.7871H71.3843C71.3319 87.7835 70.8424 88.2817 69.916 88.2817C69.5197 88.2817 69.2051 88.1768 68.972 87.967C68.7448 87.7572 68.5962 87.4455 68.5263 87.0318C67.9436 87.4455 67.4104 87.7572 66.9268 87.967C66.449 88.1768 66.0207 88.2817 65.642 88.2817C65.1583 88.2817 64.7417 88.1418 64.3921 87.8621C64.0425 87.5824 63.8677 87.2124 63.8677 86.7521C63.8677 86.1519 64.159 85.6275 64.7417 85.1788C65.3302 84.7302 66.1402 84.2932 67.1715 83.8678L68.5263 83.3172V82.9675C68.5263 82.4723 68.4942 82.1139 68.4301 81.8925C68.366 81.6711 68.2 81.473 67.9319 81.2981C67.6639 81.1233 67.3114 81.0359 66.8743 81.0359C66.0003 81.0359 65.5138 81.3273 65.4147 81.91C65.3215 82.5043 65.0768 82.8015 64.6805 82.8015C64.3251 82.8015 64.1474 82.6325 64.1474 82.2945C64.1474 81.9624 64.3834 81.607 64.8553 81.2282C65.3273 80.8437 66.0615 80.6514 67.0579 80.6514C67.7979 80.6514 68.3718 80.7679 68.7797 81.001C69.1876 81.2341 69.4556 81.4992 69.5838 81.7963C69.7179 82.0935 69.7849 82.548 69.7849 83.1598V86.0529C69.7849 86.7288 69.8198 87.1629 69.8897 87.3552C69.9597 87.5475 70.1112 87.6436 70.3442 87.6436C70.7288 87.6436 70.9677 87.3581 71.0609 86.7871ZM68.5263 83.728L67.5736 84.1125C66.0702 84.7244 65.3186 85.4935 65.3186 86.42C65.3186 86.7871 65.4147 87.0842 65.607 87.3115C65.7993 87.5329 66.0498 87.6436 66.3587 87.6436C66.6325 87.6436 66.9501 87.5533 67.3114 87.3727C67.6726 87.192 68.0776 86.9211 68.5263 86.5598V83.728Z" fill="#191919"/>
<path d="M62.4961 83.3609H57.5054C57.4821 83.7046 57.4704 83.961 57.4704 84.13C57.4704 85.3886 57.6656 86.3355 58.056 86.9706C58.4522 87.5999 59.0408 87.9146 59.8216 87.9146C60.8821 87.9146 61.6337 87.4397 62.0766 86.4899H62.4961C62.3096 87.0842 61.9396 87.5504 61.3861 87.8883C60.8325 88.2205 60.2294 88.3865 59.5768 88.3865C58.9708 88.3865 58.3969 88.235 57.855 87.932C57.3189 87.6232 56.879 87.1891 56.5352 86.6297C56.1914 86.0704 56.0195 85.3915 56.0195 84.5932C56.0195 83.4628 56.3517 82.5247 57.0159 81.7789C57.6802 81.0272 58.5105 80.6514 59.5069 80.6514C60.445 80.6514 61.1705 80.9369 61.6832 81.5079C62.196 82.079 62.467 82.6966 62.4961 83.3609ZM60.9665 83.0113C60.984 82.8772 60.9928 82.7578 60.9928 82.6529C60.9928 82.1401 60.8413 81.7439 60.5383 81.4642C60.2411 81.1787 59.874 81.0359 59.437 81.0359C58.3765 81.0359 57.7443 81.6944 57.5403 83.0113H60.9665Z" fill="#191919"/>
<path d="M50.5657 81.7168C51.9117 81.8159 52.911 82.1509 53.5636 82.722C54.2163 83.293 54.5426 84.0068 54.5426 84.8634C54.5426 85.6092 54.3211 86.2531 53.8783 86.795C53.4355 87.331 52.8673 87.6836 52.1739 87.8525C51.4864 88.0157 50.5628 88.0973 49.4033 88.0973H44.7534V87.6952H45.2079C45.7149 87.6952 46.0645 87.6311 46.2568 87.5029C46.4549 87.3747 46.5801 87.1766 46.6326 86.9086C46.685 86.6347 46.7112 86.0025 46.7112 85.0119V79.2433C46.7112 78.2819 46.6821 77.6613 46.6238 77.3817C46.5714 77.102 46.4549 76.9097 46.2742 76.8048C46.0994 76.6999 45.7119 76.6475 45.1118 76.6475H44.8845V76.2454L46.8336 76.193L49.0536 76.123C52.2934 76.123 53.9133 77.0553 53.9133 78.9199C53.9133 79.6891 53.6336 80.3067 53.0742 80.7729C52.5206 81.239 51.6845 81.5537 50.5657 81.7168ZM48.4243 81.5508C48.57 81.5566 48.6924 81.5595 48.7914 81.5595C50.05 81.5595 50.9095 81.3614 51.3698 80.9652C51.8302 80.5689 52.0603 79.928 52.0603 79.0423C52.0603 78.4247 51.97 77.9469 51.7894 77.6089C51.6087 77.2709 51.3378 77.0116 50.9765 76.831C50.6153 76.6446 49.9976 76.5513 49.1236 76.5513C48.8963 76.5513 48.6632 76.5601 48.4243 76.5775V81.5508ZM48.4243 81.9791V84.6186C48.4243 85.7432 48.4447 86.457 48.4855 86.76C48.5263 87.063 48.6341 87.2932 48.8089 87.4505C48.9896 87.6078 49.3421 87.6865 49.8665 87.6865C50.7988 87.6865 51.498 87.4476 51.9642 86.9698C52.4303 86.492 52.6634 85.7753 52.6634 84.8197C52.6634 83.8407 52.3983 83.1211 51.868 82.6608C51.3436 82.1946 50.4171 81.9616 49.0886 81.9616C48.8788 81.9616 48.6574 81.9674 48.4243 81.9791Z" fill="#191919"/>
<path d="M39.352 86.7871H39.6754C39.6229 87.7835 39.1335 88.2817 38.207 88.2817C37.8108 88.2817 37.4961 88.1768 37.263 87.967C37.0358 87.7572 36.8872 87.4455 36.8173 87.0318C36.2346 87.4455 35.7014 87.7572 35.2178 87.967C34.74 88.1768 34.3117 88.2817 33.933 88.2817C33.4493 88.2817 33.0327 88.1418 32.6831 87.8621C32.3335 87.5824 32.1587 87.2124 32.1587 86.7521C32.1587 86.1519 32.45 85.6275 33.0327 85.1788C33.6212 84.7302 34.4312 84.2932 35.4625 83.8678L36.8173 83.3172V82.9675C36.8173 82.4723 36.7852 82.1139 36.7211 81.8925C36.657 81.6711 36.491 81.473 36.2229 81.2981C35.9549 81.1233 35.6024 81.0359 35.1654 81.0359C34.2913 81.0359 33.8048 81.3273 33.7057 81.91C33.6125 82.5043 33.3678 82.8015 32.9715 82.8015C32.6161 82.8015 32.4384 82.6325 32.4384 82.2945C32.4384 81.9624 32.6744 81.607 33.1463 81.2282C33.6183 80.8437 34.3525 80.6514 35.3489 80.6514C36.0889 80.6514 36.6629 80.7679 37.0707 81.001C37.4786 81.2341 37.7467 81.4992 37.8749 81.7963C38.0089 82.0935 38.0759 82.548 38.0759 83.1598V86.0529C38.0759 86.7288 38.1108 87.1629 38.1808 87.3552C38.2507 87.5475 38.4022 87.6436 38.6353 87.6436C39.0198 87.6436 39.2587 87.3581 39.352 86.7871ZM36.8173 83.728L35.8646 84.1125C34.3612 84.7244 33.6096 85.4935 33.6096 86.42C33.6096 86.7871 33.7057 87.0842 33.898 87.3115C34.0903 87.5329 34.3409 87.6436 34.6497 87.6436C34.9235 87.6436 35.2411 87.5533 35.6024 87.3727C35.9636 87.192 36.3686 86.9211 36.8173 86.5598V83.728Z" fill="#191919"/>
<path d="M29.9115 76.0801V85.642C29.9115 86.4053 29.9202 86.886 29.9377 87.0841C29.961 87.2822 30.0455 87.4337 30.1912 87.5386C30.3369 87.6435 30.5962 87.6959 30.9691 87.6959H31.1788V88.098H27.3506V87.6959H27.5953C27.9449 87.6959 28.1926 87.6493 28.3382 87.5561C28.4897 87.457 28.5801 87.3201 28.6092 87.1453C28.6383 86.9705 28.6529 86.4694 28.6529 85.642V78.5623C28.6529 77.8107 28.5859 77.3387 28.4519 77.1464C28.3178 76.9483 27.9915 76.8492 27.473 76.8492V76.4472C27.8284 76.4472 28.245 76.4064 28.7228 76.3248C29.2064 76.2432 29.5386 76.1617 29.7192 76.0801H29.9115Z" fill="#191919"/>
<path d="M23.9786 82.4781C24.1767 81.9595 24.4972 81.5254 24.9401 81.1758C25.3887 80.8262 25.8258 80.6514 26.2511 80.6514C26.6357 80.6514 26.9387 80.7708 27.1601 81.0097C27.3815 81.2486 27.4922 81.4934 27.4922 81.7439C27.4922 81.9129 27.434 82.0586 27.3174 82.1809C27.2067 82.3033 27.0698 82.3645 26.9066 82.3645C26.6153 82.3645 26.3939 82.1489 26.2424 81.7177C26.1375 81.4263 25.9802 81.2807 25.7704 81.2807C25.5198 81.2807 25.2198 81.4526 24.8701 81.7963C24.5205 82.1343 24.2962 82.4868 24.1971 82.8539C24.0981 83.221 24.0486 83.725 24.0486 84.366V85.6421C24.0486 86.4054 24.0573 86.8861 24.0748 87.0842C24.0981 87.2823 24.1826 87.4338 24.3282 87.5387C24.4739 87.6436 24.7332 87.6961 25.1061 87.6961H25.3509V88.0981H21.5488V87.6961H21.7324C22.082 87.6961 22.3296 87.6494 22.4753 87.5562C22.6268 87.4572 22.7171 87.3202 22.7463 87.1454C22.7754 86.9706 22.79 86.4695 22.79 85.6421V83.6231C22.79 82.8539 22.7783 82.3732 22.755 82.1809C22.7375 81.9828 22.6559 81.8313 22.5103 81.7264C22.3646 81.6157 22.1053 81.5604 21.7324 81.5604H21.5488V81.167C22.0966 81.1029 22.8133 80.9311 23.6989 80.6514C23.8679 81.1117 23.9612 81.7206 23.9786 82.4781Z" fill="#191919"/>
<path d="M20.4897 86.7871H20.8131C20.7606 87.7835 20.2712 88.2817 19.3447 88.2817C18.9485 88.2817 18.6338 88.1768 18.4007 87.967C18.1735 87.7572 18.0249 87.4455 17.955 87.0318C17.3723 87.4455 16.8391 87.7572 16.3555 87.967C15.8777 88.1768 15.4494 88.2817 15.0707 88.2817C14.587 88.2817 14.1704 88.1418 13.8208 87.8621C13.4712 87.5824 13.2964 87.2124 13.2964 86.7521C13.2964 86.1519 13.5877 85.6275 14.1704 85.1788C14.7589 84.7302 15.5689 84.2932 16.6002 83.8678L17.955 83.3172V82.9675C17.955 82.4723 17.9229 82.1139 17.8588 81.8925C17.7947 81.6711 17.6287 81.473 17.3606 81.2981C17.0926 81.1233 16.7401 81.0359 16.3031 81.0359C15.429 81.0359 14.9425 81.3273 14.8434 81.91C14.7502 82.5043 14.5055 82.8015 14.1092 82.8015C13.7538 82.8015 13.5761 82.6325 13.5761 82.2945C13.5761 81.9624 13.8121 81.607 14.284 81.2282C14.756 80.8437 15.4902 80.6514 16.4866 80.6514C17.2266 80.6514 17.8006 80.7679 18.2084 81.001C18.6163 81.2341 18.8844 81.4992 19.0125 81.7963C19.1466 82.0935 19.2136 82.548 19.2136 83.1598V86.0529C19.2136 86.7288 19.2485 87.1629 19.3185 87.3552C19.3884 87.5475 19.5399 87.6436 19.773 87.6436C20.1575 87.6436 20.3964 87.3581 20.4897 86.7871ZM17.955 83.728L17.0023 84.1125C15.4989 84.7244 14.7473 85.4935 14.7473 86.42C14.7473 86.7871 14.8434 87.0842 15.0357 87.3115C15.228 87.5329 15.4785 87.6436 15.7874 87.6436C16.0612 87.6436 16.3788 87.5533 16.7401 87.3727C17.1013 87.192 17.5063 86.9211 17.955 86.5598V83.728Z" fill="#191919"/>
<path d="M11.0509 83.6489H11.4267V87.8005H11.0509C10.946 87.3286 10.7567 86.9119 10.4828 86.5507C9.43979 87.7277 8.10835 88.3162 6.48848 88.3162C4.77538 88.3162 3.37401 87.7743 2.28439 86.6905C1.20059 85.6067 0.658691 84.1733 0.658691 82.3903C0.658691 81.2191 0.909247 80.1178 1.41036 79.0865C1.91147 78.0493 2.61069 77.2801 3.50803 76.779C4.40537 76.2779 5.39011 76.0273 6.46226 76.0273C7.34794 76.0273 8.14913 76.2109 8.86584 76.578C9.58837 76.9392 10.1274 77.3413 10.4828 77.7841C10.7334 77.2889 10.8848 76.7761 10.9373 76.2459H11.3219L11.4267 80.7384H11.0509C10.7887 79.1418 10.2526 78.0318 9.4427 77.4083C8.63859 76.7848 7.7296 76.4731 6.71572 76.4731C5.4746 76.4731 4.48695 76.9771 3.75276 77.9852C3.0244 78.9932 2.66022 80.4354 2.66022 82.3116C2.66022 84.0888 3.05936 85.4523 3.85764 86.4021C4.65592 87.346 5.64941 87.818 6.83809 87.818C7.47322 87.818 8.12291 87.6636 8.78718 87.3548C9.45144 87.046 9.97586 86.5245 10.3604 85.7903C10.7508 85.0503 10.981 84.3365 11.0509 83.6489Z" fill="#191919"/>
</svg>
